<?xml version="1.0" encoding="utf-8"?>
<!-- Generator: Adobe Illustrator 16.0.3, SVG Export Plug-In . SVG Version: 6.00 Build 0)  -->
<!DOCTYPE svg PUBLIC "-//W3C//DTD SVG 1.1//EN" "http://www.w3.org/Graphics/SVG/1.1/DTD/svg11.dtd">
<svg version="1.1" id="Capa_1" xmlns="http://www.w3.org/2000/svg" xmlns:xlink="http://www.w3.org/1999/xlink" x="0px" y="0px"
	 width="200px" height="200px" viewBox="0 0 200 200" enable-background="new 0 0 200 200" xml:space="preserve">
<g>
	<path fill="#E8E8E8" d="M15.525,66.725h6.366L35.34,98.33h-7.217l-2.869-7.039h-13.27L9.115,98.33H2.076L15.525,66.725z
		 M22.788,85.195l-4.169-10.176L14.45,85.195H22.788z"/>
	<path fill="#E8E8E8" d="M29.423,66.949h7.622l8.204,22.102l8.204-22.102h7.442L48.207,98.554H42.11L29.423,66.949z"/>
	<path fill="#E8E8E8" d="M62.463,66.949h6.904V98.33h-6.904V66.949z"/>
	<path fill="#E8E8E8" d="M71.474,93.757l4.08-4.886c2.824,2.331,5.783,3.811,9.37,3.811c2.824,0,4.528-1.121,4.528-2.959v-0.09
		c0-1.748-1.076-2.645-6.321-3.99c-6.321-1.614-10.4-3.362-10.4-9.594V75.96c0-5.694,4.573-9.459,10.983-9.459
		c4.573,0,8.473,1.435,11.656,3.99l-3.586,5.201c-2.779-1.928-5.514-3.093-8.159-3.093c-2.645,0-4.035,1.21-4.035,2.734v0.09
		c0,2.062,1.345,2.734,6.77,4.125c6.366,1.659,9.952,3.945,9.952,9.414v0.09c0,6.231-4.752,9.728-11.521,9.728
		C80.037,98.778,75.24,97.12,71.474,93.757z"/>
	<path fill="#E8E8E8" d="M97.342,82.729V82.64c0-8.921,7.038-16.229,16.722-16.229s16.632,7.217,16.632,16.139v0.09
		c0,8.921-7.038,16.229-16.722,16.229C104.291,98.868,97.342,91.65,97.342,82.729z M123.478,82.729V82.64
		c0-5.38-3.944-9.863-9.504-9.863c-5.559,0-9.414,4.393-9.414,9.773v0.09c0,5.379,3.945,9.862,9.504,9.862
		S123.478,88.109,123.478,82.729z"/>
	<path fill="#E8E8E8" d="M143.112,66.949h12.239c9.862,0,16.677,6.77,16.677,15.601v0.09c0,8.832-6.814,15.69-16.677,15.69h-12.239
		V66.949z M155.352,92.099c5.648,0,9.459-3.811,9.459-9.37V82.64c0-5.559-3.811-9.459-9.459-9.459h-5.335v18.918H155.352z"/>
	<path fill="#E8E8E8" d="M174.584,66.949h23.671v6.142h-16.812v6.366h14.794v6.142h-14.794v6.59h17.035v6.142h-23.895V66.949z"/>
	<path fill="#E8E8E8" d="M2.746,104.892h10.007c5.843,0,9.377,3.464,9.377,8.468v0.069c0,5.669-4.409,8.607-9.902,8.607H8.134v7.348
		H2.746V104.892z M12.403,117.243c2.694,0,4.269-1.609,4.269-3.709v-0.07c0-2.414-1.679-3.709-4.374-3.709H8.134v7.488H12.403z"/>
	<path fill="#E8E8E8" d="M23.32,104.892h11.196c3.114,0,5.528,0.875,7.138,2.484c1.365,1.364,2.099,3.289,2.099,5.599v0.069
		c0,3.954-2.134,6.438-5.248,7.593l5.983,8.747H38.19l-5.248-7.837h-4.234v7.837H23.32V104.892z M34.167,116.788
		c2.624,0,4.128-1.399,4.128-3.464v-0.07c0-2.309-1.609-3.499-4.233-3.499h-5.354v7.033H34.167z"/>
	<path fill="#E8E8E8" d="M46.063,104.892h5.388v24.492h-5.388V104.892z"/>
	<path fill="#E8E8E8" d="M52.677,104.892h5.948l6.403,17.25l6.403-17.25h5.808l-9.901,24.667h-4.759L52.677,104.892z"/>
	<path fill="#E8E8E8" d="M83.118,104.717h4.968l10.497,24.667h-5.633l-2.239-5.493H80.354l-2.239,5.493h-5.493L83.118,104.717z
		 M88.786,119.132l-3.254-7.942l-3.254,7.942H88.786z"/>
	<path fill="#E8E8E8" d="M96.904,117.208v-0.07c0-6.963,5.249-12.666,12.771-12.666c4.618,0,7.382,1.54,9.656,3.779l-3.429,3.953
		c-1.89-1.714-3.813-2.764-6.263-2.764c-4.129,0-7.103,3.429-7.103,7.628v0.069c0,4.199,2.903,7.697,7.103,7.697
		c2.799,0,4.514-1.119,6.438-2.869l3.429,3.464c-2.519,2.694-5.318,4.374-10.041,4.374
		C102.257,129.804,96.904,124.24,96.904,117.208z"/>
	<path fill="#E8E8E8" d="M121.256,104.892h5.389v24.492h-5.389V104.892z"/>
	<path fill="#E8E8E8" d="M129.97,104.892h9.552c7.697,0,13.016,5.283,13.016,12.177v0.069c0,6.893-5.318,12.246-13.016,12.246
		h-9.552V104.892z M139.521,124.521c4.408,0,7.382-2.974,7.382-7.313v-0.07c0-4.339-2.974-7.383-7.382-7.383h-4.164v14.766H139.521z
		"/>
	<path fill="#E8E8E8" d="M161.18,104.717h4.969l10.496,24.667h-5.633l-2.239-5.493h-10.356l-2.239,5.493h-5.493L161.18,104.717z
		 M166.848,119.132l-3.254-7.942l-3.254,7.942H166.848z"/>
	<path fill="#E8E8E8" d="M177.626,104.892h9.552c7.697,0,13.016,5.283,13.016,12.177v0.069c0,6.893-5.318,12.246-13.016,12.246
		h-9.552V104.892z M187.178,124.521c4.408,0,7.382-2.974,7.382-7.313v-0.07c0-4.339-2.974-7.383-7.382-7.383h-4.164v14.766H187.178z
		"/>
</g>
<rect x="0.333" y="101.401" fill="#E8E8E8" width="199.333" height="1.516"/>
</svg>
