<?xml version="1.0" encoding="utf-8"?>
<!-- Generator: Adobe Illustrator 25.4.1, SVG Export Plug-In . SVG Version: 6.00 Build 0)  -->
<svg version="1.1" id="Capa_1" xmlns="http://www.w3.org/2000/svg" xmlns:xlink="http://www.w3.org/1999/xlink" x="0px" y="0px"
	 viewBox="0 0 1200 1200" style="enable-background:new 0 0 1200 1200;" xml:space="preserve">
<style type="text/css">
	.st0{fill:#FFFFFF;}
</style>
<g>
	<polygon class="st0" points="197.04,474.15 201.16,461.72 183.36,462.67 	"/>
	<path class="st0" d="M230.12,568.1c0-149.44,121.14-270.59,270.59-270.59S771.29,418.65,771.29,568.1c0,7.52-0.31,14.97-0.91,22.33
		l104.21-104.2c-37.48-172-190.64-300.79-373.88-300.79c-211.34,0-382.67,171.33-382.67,382.67S289.36,950.76,500.7,950.76
		c26.91,0,53.17-2.78,78.51-8.06L473.88,837.37C337.02,823.91,230.12,708.49,230.12,568.1z M799.06,376.03l8.18,13.28l-37.02,52
		l-9.1-14.77l6.64-9.09l-11.81-19.17l-11.06,1.92l-8.92-14.48L799.06,376.03z M757.93,324.53c14.18,15.29,13.59,32.32,1.24,43.77
		l-0.12,0.11c-12.35,11.45-29.86,10.97-44.15-4.44l-15.08-16.27l42.8-39.69L757.93,324.53z M711.54,282.95l-13.51,62.38l-14.18-9.98
		l2.52-10.97l-18.41-12.96l-9.41,6.13l-13.91-9.79l54.16-33.78L711.54,282.95z M605.4,259.73l0.07-0.15
		c6.75-15.61,24.06-22.67,40.29-15.65c10.94,4.73,16,12.37,17.9,21l-14.92,3.82c-1.41-5.15-3.87-9.12-9-11.34
		c-7.5-3.24-15.53,0.83-18.9,8.63l-0.07,0.15c-3.47,8.04-0.91,16.6,6.6,19.84c5.59,2.42,10,1.24,14.91-1.28l7.73,12.79
		c-8.06,4.78-17.09,6.96-28.96,1.84C605.75,292.76,598.49,275.72,605.4,259.73z M602.45,229.11l-15.31,56.33l-15.69-4.27
		l15.31-56.33L602.45,229.11z M527.54,214.78l46.27,6.33l-1.92,14.05l-30.24-4.14l-1.35,9.83l27.35,3.74l-1.82,13.3l-27.35-3.74
		l-2.83,20.66l-16.03-2.19L527.54,214.78z M494.78,214.43l16.26,0.09l-0.31,58.38l-16.26-0.09L494.78,214.43z M481.34,214.09
		l1.82,14.06l-17.37,2.25l5.67,43.83l-16.04,2.07l-5.67-43.83l-17.37,2.25l-1.82-14.06L481.34,214.09z M394.58,230.96
		c8.48-2.77,15.07-2.46,20.04,0.13c4.29,2.11,7.35,5.85,9.13,11.32l0.05,0.16c2.76,8.48,0.08,15.59-5.86,20.77l19.55,15.03
		l-17.76,5.79l-16.66-13.16l-6.74,2.2l5.48,16.81l-15.38,5.02l-18.1-55.5L394.58,230.96z M352.75,246.32l6.61,12.07l-27.13,14.87
		l4.25,7.75l24.57-13.47l6.13,11.19l-24.57,13.47l4.45,8.12l27.49-15.07l6.61,12.07l-41.53,22.77l-28.06-51.19L352.75,246.32z
		 M278.38,292.11c9.21-7.58,18.31-8.59,26.86-6.34l-3.41,15.01c-5.23-1.1-9.88-0.72-14.2,2.83c-6.31,5.19-6.35,14.19-0.95,20.76
		l0.11,0.13c5.56,6.76,14.35,8.38,20.66,3.19c4.7-3.87,5.67-8.34,5.67-13.85l14.91-1.04c0.57,9.36-1.61,18.39-11.59,26.6
		c-12.88,10.6-31.35,9.28-42.43-4.18l-0.11-0.13C263.1,321.97,264.73,303.35,278.38,292.11z M194.12,392.67
		c10.57-17.97,27.05-22.31,41.57-13.77l0.14,0.08c14.52,8.54,19.09,25.45,8.44,43.56l-11.24,19.12l-50.32-29.59L194.12,392.67z
		 M167.65,449.12l63.63-5.08l-5.46,16.46l-11.23,0.76l-7.09,21.37l8.58,7.24l-5.36,16.15l-47.98-42.09L167.65,449.12z
		 M149.75,528.51c2.61-20.68,16.04-31.18,32.75-29.07l0.17,0.02c16.71,2.11,27.59,15.84,24.96,36.69l-2.78,22.01l-57.91-7.31
		L149.75,528.51z M147.38,568.07l58.36-1.24l0.34,16.26l-58.36,1.24L147.38,568.07z M150.81,623.91
		c-1.52-9.81-0.07-17.88,3.98-24.92l12.53,6.24c-2.89,5.85-3.97,11.93-3.18,17.04c0.6,3.87,2.54,5.51,4.6,5.19l0.17-0.03
		c2.64-0.41,3.48-2.57,4.06-10.84c0.83-13.72,3.84-22.62,14.63-24.29l0.16-0.03c11.78-1.83,20.23,6.4,22.41,20.41
		c1.58,10.22-0.12,20.44-5.37,28.51l-12.01-7.25c3.65-6.39,5.06-13.11,4.02-19.78c-0.66-4.29-2.51-6.36-4.98-5.98l-0.17,0.03
		c-2.39,0.37-3.42,2.47-4.01,10.58c-0.9,12.71-2.89,22.73-14.76,24.57l-0.16,0.03C162.02,645.04,152.95,637.75,150.81,623.91z
		 M166.63,683.32c-2.97-8.42-2.82-15.01-0.35-20.04c2.01-4.33,5.67-7.48,11.1-9.4l0.16-0.05c8.41-2.97,15.58-0.46,20.91,5.36
		l14.55-19.91l6.22,17.62l-12.76,16.97l2.36,6.68l16.67-5.88l5.38,15.26l-55.05,19.43L166.63,683.32z M183,724.8l11.9-6.9
		l15.52,26.77l7.65-4.44l-14.06-24.24l11.04-6.4l14.06,24.24l8.01-4.64l-15.73-27.13l11.9-6.9l23.77,40.98l-50.5,29.29L183,724.8z
		 M243.27,810.87l19.15-34.27l-36.57,14.27l-11.67-13.4l59.89-20.76l9.86,11.32l-28.78,56.48L243.27,810.87z M265.24,832.15
		l37.97-44.34l12.35,10.58l-37.97,44.34L265.24,832.15z M324.68,875.35l-4.03-38.89l-16.34,26.17l-13.58-8.48l30.91-49.52
		l12.03,7.51l4.19,40.37l16.96-27.16l13.58,8.48l-30.91,49.52L324.68,875.35z M416.88,879.42l-11.2,30.8l-15.44-5.61l11.09-30.49
		c2.88-7.92,0.25-13.13-5.87-15.35c-6.11-2.22-11.42-0.07-14.21,7.61l-11.23,30.88l-15.44-5.61l11.06-30.41
		c6.44-17.71,19.37-21.8,34.97-16.13C416.2,850.77,423.12,862.25,416.88,879.42z"/>
	<path class="st0" d="M227.64,393.42l-0.14-0.08c-8.05-4.73-15.98-1.95-20.88,6.39l-3.34,5.68l25.59,15.05l3.34-5.68
		C237.11,406.43,235.76,398.19,227.64,393.42z"/>
	<path class="st0" d="M180.83,515.96l-0.17-0.02c-9.27-1.17-15.45,4.52-16.66,14.12l-0.83,6.54l29.46,3.72l0.82-6.54
		C194.67,524.18,190.18,517.14,180.83,515.96z"/>
	<path class="st0" d="M183.89,668.83l-0.16,0.05c-4.33,1.53-5.42,5.45-3.61,10.56l3.53,9.99l13.21-4.66l-3.55-10.07
		C191.47,669.51,187.9,667.41,183.89,668.83z"/>
	<polygon class="st0" points="694.02,294.08 679.09,303.86 689.8,311.39 	"/>
	<polygon class="st0" points="786.75,392.62 769.17,395.72 776.03,406.86 	"/>
	<path class="st0" d="M402.55,257.83c5.23-1.71,7.42-5.23,6.1-9.27l-0.05-0.16c-1.42-4.36-5.32-5.55-10.47-3.87l-10.07,3.28
		l4.34,13.32L402.55,257.83z"/>
	<path class="st0" d="M747.58,356.42l0.12-0.11c6.85-6.35,6.46-14.75-0.12-21.84l-4.48-4.83l-21.77,20.19l4.48,4.83
		C732.39,361.75,740.67,362.83,747.58,356.42z"/>
	<rect x="369.04" y="464.14" class="st0" width="30.45" height="109.3"/>
	<path class="st0" d="M503.41,554.74c2.13-4.36,3.2-9.35,3.2-14.96v-0.31c0-5.09-0.94-9.48-2.81-13.17
		c-1.87-3.69-4.58-6.83-8.12-9.43c-3.54-2.6-7.83-4.81-12.88-6.63c-5.05-1.82-10.7-3.4-16.94-4.75c-3.75-0.83-6.85-1.63-9.29-2.42
		c-2.45-0.78-4.37-1.56-5.78-2.34c-1.41-0.78-2.4-1.64-2.97-2.57c-0.57-0.93-0.86-2.03-0.86-3.27v-0.31c0-1.97,0.91-3.64,2.73-4.99
		c1.82-1.35,4.55-2.03,8.2-2.03c4.89,0,9.97,0.91,15.22,2.73c5.26,1.82,10.38,4.5,15.38,8.04l15.15-21.46
		c-5.93-4.82-12.57-8.46-19.91-10.92c-7.34-2.46-15.69-3.69-25.06-3.69c-6.56,0-12.44,0.86-17.64,2.57
		c-5.21,1.72-9.66,4.13-13.35,7.25c-3.7,3.12-6.51,6.81-8.43,11.07c-1.93,4.26-2.89,8.94-2.89,14.03v0.31
		c0,5.61,1.07,10.32,3.2,14.11c2.13,3.79,5.05,6.96,8.74,9.51c3.69,2.55,8.04,4.63,13.04,6.24c5,1.61,10.41,3.09,16.24,4.44
		c3.75,0.83,6.79,1.64,9.13,2.42c2.34,0.78,4.22,1.59,5.62,2.42c1.41,0.83,2.37,1.69,2.89,2.57c0.52,0.88,0.78,1.9,0.78,3.04v0.31
		c0,2.39-1.07,4.24-3.2,5.54c-2.13,1.3-5.23,1.95-9.29,1.95c-12.7,0-24.51-4.37-35.44-13.12l-16.86,20.19
		c6.77,6.07,14.55,10.63,23.34,13.67c8.8,3.03,18.09,4.55,27.87,4.55c6.66,0,12.7-0.8,18.11-2.41c5.41-1.61,10.04-3.95,13.9-7.01
		C498.28,562.82,501.27,559.1,503.41,554.74z"/>
	<path class="st0" d="M618.4,559c5.31-5.15,9.45-11.19,12.41-18.11c2.97-6.92,4.45-14.29,4.45-22.09v-0.31
		c0-7.81-1.48-15.15-4.45-22.02c-2.97-6.87-7.05-12.86-12.26-17.96c-5.21-5.1-11.4-9.13-18.58-12.1
		c-7.18-2.97-14.99-4.45-23.42-4.45c-8.43,0-16.24,1.48-23.42,4.45c-7.18,2.97-13.43,7.03-18.74,12.18
		c-5.31,5.15-9.45,11.19-12.41,18.11c-2.97,6.92-4.45,14.29-4.45,22.09v0.31c0,7.81,1.48,15.15,4.45,22.02
		c2.97,6.87,7.05,12.86,12.26,17.96c5.2,5.1,11.4,9.13,18.58,12.1c7.18,2.97,14.99,4.45,23.42,4.45c8.43,0,16.24-1.48,23.42-4.45
		C606.85,568.21,613.09,564.15,618.4,559z M587.91,545.96c-3.45,1.56-7.26,2.34-11.43,2.34c-4.18,0-7.99-0.81-11.43-2.42
		c-3.44-1.61-6.39-3.77-8.85-6.48c-2.45-2.71-4.36-5.83-5.72-9.37c-1.36-3.54-2.03-7.29-2.03-11.24v-0.31
		c0-3.95,0.65-7.7,1.96-11.24c1.3-3.54,3.18-6.64,5.64-9.29c2.45-2.65,5.38-4.76,8.77-6.32c3.39-1.56,7.17-2.34,11.35-2.34
		c4.17,0,7.98,0.81,11.43,2.42c3.44,1.62,6.42,3.77,8.92,6.48c2.5,2.71,4.44,5.83,5.79,9.37c1.36,3.54,2.04,7.29,2.04,11.24v0.31
		c0,3.96-0.68,7.7-2.04,11.24c-1.36,3.54-3.23,6.64-5.64,9.29C594.28,542.29,591.35,544.4,587.91,545.96z"/>
	<polygon class="st0" points="1029.84,364.41 629.39,764.86 544.37,679.84 445.5,778.71 629.39,962.6 1128.71,463.28 	"/>
	<path class="st0" d="M326.87,626.09l-18.54,13.29v10.87h37.71v-11.7H328.6l7.99-5.11c5.37-3.45,9.01-7.16,9.01-14v-0.13
		c0-8.5-7.35-14.64-17.58-14.64c-9.33,0-14.57,3.45-19.75,9.84l9.84,8.37c3.71-3.96,6.07-5.56,8.63-5.56s4.03,1.41,4.03,3.32
		C330.77,622.38,329.69,624.11,326.87,626.09z"/>
	<polygon class="st0" points="371.36,650.25 371.36,605.19 360.05,605.19 346.69,608.83 349.38,619.89 356.66,618.29 356.66,650.25 
			"/>
	<path class="st0" d="M397.44,651.21c13.55,0,21.6-10.99,21.6-23.33v-0.13c0-12.34-7.93-23.2-21.48-23.2s-21.6,10.99-21.6,23.33
		v0.13C375.97,640.34,383.89,651.21,397.44,651.21z M390.8,627.75c0-6.14,2.62-10.23,6.65-10.23c4.03,0,6.78,4.22,6.78,10.35v0.13
		c0,6.14-2.62,10.23-6.65,10.23c-4.03,0-6.78-4.22-6.78-10.36V627.75z"/>
	<path class="st0" d="M444.23,604.55c-13.55,0-21.6,10.99-21.6,23.33v0.13c0,12.34,7.93,23.2,21.48,23.2s21.6-10.99,21.6-23.33
		v-0.13C465.71,615.41,457.78,604.55,444.23,604.55z M450.88,628.01c0,6.14-2.62,10.23-6.65,10.23c-4.03,0-6.78-4.22-6.78-10.36
		v-0.13c0-6.14,2.62-10.23,6.65-10.23c4.03,0,6.78,4.22,6.78,10.35V628.01z"/>
	<polygon class="st0" points="490.06,650.25 490.06,605.19 478.75,605.19 465.39,608.83 468.08,619.89 475.36,618.29 475.36,650.25 
			"/>
	<rect x="511.03" y="635.55" class="st0" width="14.83" height="14.7"/>
	<rect x="511.03" y="615.35" class="st0" width="14.83" height="14.7"/>
	<path class="st0" d="M563.64,626.09l-18.54,13.29v10.87h37.71v-11.7h-17.45l7.99-5.11c5.37-3.45,9.01-7.16,9.01-14v-0.13
		c0-8.5-7.35-14.64-17.58-14.64c-9.33,0-14.57,3.45-19.75,9.84l9.84,8.37c3.71-3.96,6.07-5.56,8.63-5.56s4.03,1.41,4.03,3.32
		C567.54,622.38,566.45,624.11,563.64,626.09z"/>
	<path class="st0" d="M607.23,651.21c13.55,0,21.6-10.99,21.6-23.33v-0.13c0-12.34-7.93-23.2-21.48-23.2s-21.6,10.99-21.6,23.33
		v0.13C585.76,640.34,593.68,651.21,607.23,651.21z M600.59,627.75c0-6.14,2.62-10.23,6.65-10.23c4.03,0,6.78,4.22,6.78,10.35v0.13
		c0,6.14-2.62,10.23-6.65,10.23c-4.03,0-6.78-4.22-6.78-10.36V627.75z"/>
	<polygon class="st0" points="653.19,650.25 653.19,605.19 641.88,605.19 628.52,608.83 631.2,619.89 638.49,618.29 638.49,650.25 	
		"/>
	<path class="st0" d="M656.65,637.79v0.13c0,7.73,7.93,13.17,19.5,13.17s19.5-5.37,19.5-13.17v-0.13c0-5.69-3.52-8.88-8.05-10.74
		c3.39-1.73,6.52-4.79,6.52-9.72v-0.13c0-7.35-7.35-12.53-17.96-12.53s-17.96,5.18-17.96,12.53v0.13c0,4.92,3.13,7.99,6.52,9.72
		C659.84,629.03,656.65,632.35,656.65,637.79z M671.47,619.06c0-2.24,1.85-4.22,4.67-4.22s4.67,1.98,4.67,4.22v0.13
		c0,2.49-1.92,4.35-4.67,4.35c-2.75,0-4.67-1.85-4.67-4.35V619.06z M670.96,636.12c0-2.43,2.05-4.35,5.18-4.35s5.18,1.92,5.18,4.35
		v0.13c0,2.17-1.73,4.47-5.18,4.47c-3.45,0-5.18-2.24-5.18-4.47V636.12z"/>
</g>
</svg>
