<?xml version="1.0" encoding="utf-8"?>
<!-- Generator: Adobe Illustrator 22.0.1, SVG Export Plug-In . SVG Version: 6.00 Build 0)  -->
<svg version="1.1"
	 id="Capa_1" inkscape:version="0.92.2 (5c3e80d, 2017-08-06)" sodipodi:docname="LOGO_UPQ-FOOT.svg" xmlns:cc="http://creativecommons.org/ns#" xmlns:dc="http://purl.org/dc/elements/1.1/" xmlns:inkscape="http://www.inkscape.org/namespaces/inkscape" xmlns:rdf="http://www.w3.org/1999/02/22-rdf-syntax-ns#" xmlns:sodipodi="http://sodipodi.sourceforge.net/DTD/sodipodi-0.dtd" xmlns:svg="http://www.w3.org/2000/svg"
	 xmlns="http://www.w3.org/2000/svg" xmlns:xlink="http://www.w3.org/1999/xlink" x="0px" y="0px" viewBox="0 0 500 500"
	 style="enable-background:new 0 0 500 500;" xml:space="preserve">
<style type="text/css">
	.st0{fill:#EEEEEE;}
</style>
<g>
	<g>
		<path class="st0" d="M195.1,435.4c2.6,6.2,7.8,17.9,10.1,22.6l0.2,0l4.8-18.4l4.3,1.1l-6.6,25.3l-3.8-1
			c-2.2-4.4-6.8-14.4-9.4-20.6l-0.2,0l-4.5,16.9l-4.4-1.2l6.6-25.3L195.1,435.4z"/>
	</g>
</g>
<g>
	<g>
		<path class="st0" d="M182.2,441.2c-2.5,5.8-6.8,7.8-12.3,5.4c-5.6-2.4-7.1-6.7-4.6-12.6c2.7-6.4,7.3-7.5,12.3-5.3
			C182.6,430.8,184.9,434.9,182.2,441.2z M169.4,435.8c-1.9,4.4-0.8,6.8,1.8,7.8c2.6,1.1,5,0.3,6.9-4.2c1.7-4,0.8-6.6-1.8-7.8
			C173.5,430.5,171.1,431.7,169.4,435.8z"/>
	</g>
</g>
<g>
	<g>
		<path class="st0" d="M162.8,422.1l-9.3,16.5l-3.1-1.7l0.9-2.8l-0.2-0.1c-2.3,0.7-4.6,1.1-6.2,0.2c-0.8-0.4-1.3-1.2-1.4-2.1
			l2.6-2.6c0.3,0.5,0.7,0.9,1.3,1.2c1.4,0.8,4,0.2,5.5-0.2l5.9-10.4L162.8,422.1z"/>
	</g>
</g>
<g>
	<g>
		<path class="st0" d="M136,428.6l-3-2.3l1.1-2.2l-0.2-0.2c-2.9,0.3-4.8-0.1-6.7-1.5c-2-1.5-2.7-3.4-2.3-5.5l-0.2-0.1
			c-3,0.4-5.3-0.3-7-1.6c-3.4-2.6-3.2-5.9-0.6-9.5l7.3-9.5l3.6,2.7l-6.9,9c-1.7,2.3-1.8,4-0.1,5.3c1.4,1,3.3,1.4,5,0.9l8-10.5
			l3.6,2.7l-6.9,9c-1.7,2.3-1.8,4-0.1,5.3c1.4,1,3.5,1.3,5.2,0.7l7.9-10.4l3.6,2.7L136,428.6z"/>
	</g>
</g>
<g>
	<g>
		<path class="st0" d="M107.1,378.6c1.2,0.6,2.4,1.4,3.1,2.1c1.3,1.4,1.3,2.6,0.3,4l0.1,0.2c2.7,0.3,4.4,0.9,6,2.5
			c2.2,2.2,2.4,5.7,0,8c-1.9,1.8-3.7,1.5-6.2-0.1c-2.1-1.3-4.7-3.1-6.4-4.1l-0.8,0.8c-1.6,1.5-1.9,3,0.1,5.1
			c1.4,1.5,3.4,2.6,5.5,3.3l-1.4,2.6c-2.5-0.8-5.1-2.3-6.7-4c-2.7-2.8-4.7-6.4-0.5-10.4l5.8-5.6c0.5-0.5,0.9-1,0.2-1.6
			c-0.4-0.4-0.7-0.7-0.8-0.8L107.1,378.6z M113.2,388.2c-0.9-1-2.6-1.6-4.6-1.6l-3,2.9c1.4,1,3.3,2.2,4.5,2.8c1,0.6,2,1,3.1,0
			C114.3,391.1,114.3,389.3,113.2,388.2z"/>
	</g>
</g>
<g>
	<g>
		<path class="st0" d="M81.1,340.1l2.3,3.8L68,354.5l0.1,0.1c6.5-1,16.2-1.9,18.2-2.1l1.4,1.7c-2.1,3.1-6.4,9.1-10.4,15.7l0.1,0.1
			l16.4-9.2l2.3,3.7l-22.9,12.7l-2.5-4.1c4.2-7.2,9.8-15.1,10.8-16.5l-0.1-0.1c-3.3,0.2-12.3,1.3-19.3,2.6l-2.6-4.3L81.1,340.1z"/>
	</g>
</g>
<g>
	<g>
		<path class="st0" d="M71.3,319c1.4,1.4,2.9,3.5,3.9,5.8c1.9,4.6,1.4,10-5,12.7c-6.9,2.9-10.9-0.1-12.8-4.5
			c-2.1-5-0.2-8.6,4.5-10.5c0.4-0.2,0.9-0.4,1.3-0.5l4.8,11.6l0.7-0.3c3.9-1.6,4.4-4.6,3.1-7.7c-0.7-1.7-2-3.6-3.2-4.9L71.3,319z
			 M62.7,326.5c-3,1.3-3.6,3.1-2.7,5.2c0.9,2.1,2.8,3.3,5.9,2.5L62.7,326.5z"/>
	</g>
</g>
<g>
	<g>
		<path class="st0" d="M57.1,303.5c2.1-2.3,2.8-3.1,4.4-5.1c0.6-0.9,0.9-1.7,0.6-2.8l2.9-0.8c0.2,0.5,0.5,1.3,0.7,1.9
			c0.5,1.7,0.2,2.6-1.3,4.6c-1.3,1.7-2.5,2.9-4,4.6l0,0.2c1.6,0.5,4.2,1.3,8.4,2.5l1.3,4.6c-5.1-1.6-9.3-3-11.1-3.7
			c-1.5,1.8-2.5,2.8-3.8,4.5c-0.8,1.1-0.9,1.9-0.7,2.5l-2.8,0.8c-0.2-0.6-0.4-1.1-0.5-1.7c-0.5-1.8-0.4-2.7,1.2-4.6
			c1.2-1.5,2.2-2.5,3.4-3.9l0-0.2c-1.2-0.3-3.8-1.2-7.5-2.1l-1.3-4.6C51.3,301.6,55.5,303,57.1,303.5z"/>
	</g>
</g>
<g>
	<g>
		<path class="st0" d="M36.1,291.1c-0.3-1.5,0.6-2.8,2-3.1c1.5-0.3,2.7,0.7,3,2.2c0.3,1.6-0.6,2.8-2,3.1
			C37.6,293.6,36.4,292.8,36.1,291.1z M45.4,291.8l-0.8-4.4l18.6-3.3l0.8,4.4L45.4,291.8z"/>
	</g>
</g>
<g>
	<g>
		<path class="st0" d="M53,278c-5.4,0.5-10.2-0.9-10.8-7.9c-0.2-1.9,0.1-4.5,0.6-6.1l3.5,0.4c-0.5,1.3-0.8,3.3-0.7,4.8
			c0.3,3.4,2.7,4.7,6.8,4.3c3.7-0.3,5.9-2,5.5-5.8c-0.1-1.7-0.8-3.6-1.4-4.8l3.1-0.8c0.9,1.5,1.6,3.8,1.8,6.2
			C62.1,273.7,59.3,277.4,53,278z"/>
	</g>
</g>
<g>
	<g>
		<path class="st0" d="M60.5,237.9c0.5,1.3,0.7,2.6,0.7,3.6c0,1.9-0.9,2.8-2.6,3l-0.1,0.2c1.7,2.1,2.5,3.7,2.4,6
			c-0.1,3.1-2.4,5.7-5.7,5.6c-2.6-0.1-3.7-1.6-4.3-4.5c-0.5-2.4-1.1-5.5-1.5-7.4l-1.2,0c-2.2-0.1-3.5,0.8-3.5,3.6
			c-0.1,2,0.6,4.2,1.5,6.3l-2.8,0.8c-1.2-2.3-2-5.3-1.9-7.6c0.1-3.9,1.2-7.8,7.1-7.6l8.1,0.2c0.7,0,1.3-0.1,1.3-1c0-0.5,0-0.9,0-1.2
			L60.5,237.9z M58,249c0-1.4-0.7-3-2.1-4.4l-4.2-0.1c0.3,1.7,0.8,3.9,1.1,5.2c0.3,1.2,0.7,2.1,2.2,2.1C56.7,251.8,58,250.6,58,249z
			"/>
	</g>
</g>
<g>
	<g>
		<path class="st0" d="M42.9,229.2l0.6-3.7l2.5-0.1l0.1-0.2c-1.5-2.2-2.2-4.3-1.8-6.6c0.6-3.9,3.5-5.6,7.9-5l11.9,1.8l-0.7,4.4
			l-11.2-1.7c-3-0.4-4.4,0.5-4.7,2.5c-0.3,1.8,0.6,3.7,1.8,5l13,1.9l-0.7,4.4L42.9,229.2z"/>
	</g>
</g>
<g>
	<g>
		<path class="st0" d="M69.9,191.2c0.1,1.4,0,2.7-0.2,3.7c-0.5,1.8-1.6,2.5-3.2,2.3l-0.1,0.1c1.1,2.4,1.5,4.2,0.9,6.4
			c-0.8,3-3.7,4.9-6.9,4.1c-2.5-0.7-3.2-2.4-3.1-5.4c0.1-2.5,0.3-5.6,0.4-7.6l-1.1-0.3c-2.1-0.6-3.6-0.1-4.3,2.6
			c-0.5,1.9-0.5,4.3-0.1,6.5l-3,0.1c-0.6-2.6-0.6-5.6,0-7.8c1-3.7,3.1-7.2,8.7-5.7l7.8,2.2c0.7,0.2,1.3,0.2,1.5-0.6
			c0.1-0.5,0.2-0.9,0.2-1.1L69.9,191.2z M64.8,201.3c0.4-1.3,0.1-3.1-0.9-4.8l-4-1.1c-0.1,1.7-0.2,3.9-0.2,5.3
			c0,1.2,0.2,2.2,1.6,2.6C62.8,203.8,64.3,202.9,64.8,201.3z"/>
	</g>
</g>
<g>
	<g>
		<path class="st0" d="M83.2,159.8c-0.1,2-0.7,4.4-1.9,6.7c-2.2,4.5-6.6,7.6-12.8,4.6c-6.7-3.3-7.1-8.3-5-12.6
			c2.4-4.8,6.3-5.8,10.9-3.5c0.4,0.2,0.9,0.4,1.3,0.7l-5.6,11.2l0.7,0.3c3.8,1.9,6.3,0.3,7.8-2.7c0.8-1.7,1.4-3.9,1.6-5.7
			L83.2,159.8z M71.9,158.3c-2.9-1.5-4.7-0.6-5.7,1.4c-1,2-0.7,4.3,2,6.1L71.9,158.3z"/>
	</g>
</g>
<g>
	<g>
		<path class="st0" d="M71.9,143.6l2.1-3.1l2.3,0.9l0.2-0.2c-0.5-2.6-0.2-4.8,1.1-6.8c2.2-3.3,5.5-3.6,9.3-1.2l10.1,6.6l-2.5,3.7
			l-9.5-6.3c-2.5-1.7-4.2-1.4-5.3,0.3c-1,1.5-1,3.6-0.5,5.3l11,7.2l-2.5,3.7L71.9,143.6z"/>
	</g>
</g>
<g>
	<g>
		<path class="st0" d="M90.1,107.1l3.1-3.4l19.3,17.7l-3.1,3.4L90.1,107.1z"/>
	</g>
</g>
<g>
	<g>
		<path class="st0" d="M110.7,96.3c2.5-2.3,4.5-2.7,5.8-2.6l0.2-0.1c-0.7-1-1.1-1.8,0.2-2.9c0.6-0.6,1.6-1.1,2.2-1.4l1.4,1.9
			c-0.6,0.4-1,0.7-1.3,1c-1.1,1-0.6,1.6,0.1,2.6c0.5,0.3,1,0.7,1.4,1.1c2.5,2.8,1.5,6.5-2,9.6c-0.1,0.1-0.4,0.4-0.6,0.5
			c-0.6,1.1-1.3,3-0.4,4c0.7,0.8,1.7,0.2,2.3-0.3l4.4-4c3.2-2.9,6.1-3.3,8.3-0.8c3.4,3.8-0.6,9-4,12c-2.2,2-6.8,5.3-9.6,2.2
			c-1.6-1.8-1.1-3.8-0.6-5.4l-0.1-0.2c-1.8,0.8-2.7,0.2-3.2-0.4c-1.4-1.5-0.7-3.9,0.3-5.6l-0.1-0.1c-2.3,1.1-4.6,0.7-6.3-1.1
			C106.5,103.3,107.2,99.5,110.7,96.3z M117.1,103.4c1.7-1.5,2-3.3,0.5-5c-1.5-1.7-3.4-1.8-5-0.3c-1.8,1.6-1.8,3.4-0.2,5.1
			C113.4,104.5,115.3,105,117.1,103.4z M122.4,111.1c-0.6,0.8-1.6,3-0.3,4.4c1.5,1.6,3.8,0.1,5.4-1.4c1.9-1.7,3.7-4.3,2-6.3
			c-0.9-1-2.1-1.2-3.8,0.2L122.4,111.1z"/>
	</g>
</g>
<g>
	<g>
		<path class="st0" d="M150,90.3l-2.9,2l-1.8-1.5l-0.2,0.1c-0.6,2.4-1.7,4.3-3.6,5.6c-3.1,2.1-6.8,1.3-9.1-2.1l-7-10.1l3.7-2.5
			l6.6,9.5c1.5,2.2,3.5,2.9,5.3,1.6c1.4-1,2.2-3,2.4-4.5l-7.7-11.1l3.7-2.5L150,90.3z"/>
	</g>
</g>
<g>
	<g>
		<path class="st0" d="M171.9,77.7c-0.9,1-2,1.9-2.9,2.4c-1.7,0.9-2.9,0.6-3.9-0.8l-0.2,0c-1,2.5-2,4-4.1,5.1
			c-2.8,1.4-6.1,0.7-7.7-2.2c-1.2-2.3-0.4-4,1.8-5.9c1.9-1.6,4.3-3.6,5.8-4.9l-0.5-1c-1-2-2.4-2.7-4.9-1.3c-1.8,0.9-3.4,2.6-4.8,4.4
			l-2.1-2.1c1.4-2.2,3.7-4.3,5.7-5.3c3.4-1.8,7.4-2.7,10.1,2.5l3.8,7.2c0.3,0.6,0.7,1.1,1.5,0.7c0.5-0.2,0.8-0.5,1-0.6L171.9,77.7z
			 M161,80.9c1.2-0.6,2.3-2.1,2.8-4l-1.9-3.7c-1.4,1.1-3,2.6-4,3.5c-0.9,0.8-1.5,1.7-0.8,2.9C157.9,81.2,159.6,81.6,161,80.9z"/>
	</g>
</g>
<g>
	<g>
		<path class="st0" d="M167.6,51l4.1-1.7l10.2,24.9l-4.1,1.7L167.6,51z"/>
	</g>
</g>
<g>
	<g>
		<path class="st0" d="M185.6,63c-2-6.5,0.5-10.7,5.6-12.2c1.8-0.5,3.3-0.6,4.3-0.5l-2.4-8.1l4.2-1.3l7.7,25.7l-3.3,1l-1.3-2.1
			l-0.2,0c-0.9,1.7-2.1,3.4-4.6,4.2C190.8,71.2,187,67.8,185.6,63z M199.1,62.6l-2.8-9.2c-1.3-0.2-2.6-0.1-3.6,0.2
			c-3.6,1.1-3.9,4.4-2.9,7.9c1.1,3.6,3.4,5.5,5.7,4.9C197.3,65.8,198.5,64.3,199.1,62.6z"/>
	</g>
</g>
<g>
	<path class="st0" d="M229.7,61.6c-1.2,0.7-2.5,1.2-3.5,1.4c-1.9,0.3-2.9-0.4-3.4-2l-0.2,0c-1.7,2-3.2,3.2-5.5,3.5
		c-3.1,0.5-6-1.2-6.6-4.5c-0.4-2.6,0.9-3.9,3.6-5.1c2.3-1,5.2-2.1,7-2.9l-0.2-1.1c-0.4-2.2-1.4-3.3-4.2-2.8c-2,0.3-4,1.4-5.9,2.7
		l-1.4-2.6c2.1-1.7,4.8-2.9,7-3.3c3.8-0.6,7.9-0.3,8.8,5.5l1.3,8c0.1,0.7,0.3,1.3,1.2,1.1c0.5-0.1,0.9-0.2,1.1-0.3L229.7,61.6z
		 M218.3,61.2c1.3-0.2,2.8-1.2,3.9-2.9l-0.7-4.1c-1.6,0.6-3.6,1.5-4.8,2.1c-1.1,0.5-1.9,1.1-1.7,2.6
		C215.2,60.5,216.7,61.5,218.3,61.2z"/>
</g>
<g>
	<path class="st0" d="M234.2,52.4c-0.3-6.8,3.1-10.3,8.4-10.5c1.9-0.1,3.3,0.3,4.2,0.5l-0.4-8.4l4.4-0.2l1.2,26.8l-3.5,0.2l-0.7-2.3
		l-0.2,0c-1.3,1.4-2.8,2.8-5.5,2.9C237.2,61.7,234.4,57.5,234.2,52.4z M247.4,55.4l-0.4-9.6c-1.2-0.5-2.5-0.8-3.6-0.7
		c-3.8,0.2-4.9,3.3-4.7,6.9c0.2,3.8,1.9,6.2,4.3,6.1C244.8,58.1,246.4,56.9,247.4,55.4z"/>
</g>
<g>
	<path class="st0" d="M275.5,35.9l4.6,0.6L277,58.9l10.1,1.4l-0.5,3.6l-14.7-2L275.5,35.9z"/>
</g>
<g>
	<g>
		<path class="st0" d="M310.2,69.1c-1.4,0.1-2.7,0.1-3.7-0.2c-1.9-0.5-2.5-1.5-2.3-3.2l-0.2-0.1c-2.4,1.1-4.2,1.6-6.4,1
			c-3-0.8-5-3.6-4.2-6.8c0.7-2.5,2.4-3.2,5.3-3.2c2.5,0,5.6,0.2,7.6,0.2l0.3-1.1c0.6-2.2,0-3.6-2.7-4.3c-2-0.5-4.3-0.4-6.5,0l-0.2-3
			c2.6-0.7,5.6-0.7,7.8-0.1c3.7,1,7.3,3,5.8,8.6l-2,7.8c-0.2,0.7-0.2,1.3,0.7,1.5c0.5,0.1,0.9,0.2,1.1,0.2L310.2,69.1z M300,64.2
			c1.3,0.3,3.1,0,4.7-1l1.1-4.1c-1.7-0.1-3.9-0.1-5.3-0.1c-1.2,0-2.2,0.2-2.6,1.6C297.5,62.3,298.4,63.8,300,64.2z"/>
	</g>
</g>
<g>
	<g>
		<path class="st0" d="M325.6,46.5l4.1,1.7l-2.4,6l-1.5,3.4l0.1,0.1c1.6-0.7,3.6-1.3,6-0.4c4.6,1.8,5.4,6.8,3.5,11.6
			c-2.3,5.8-6.4,8.3-12.2,6c-1.8-0.7-3.7-1.8-5.4-3.6l-1.1,0.7l-1.3-0.5L325.6,46.5z M324.8,60.7l-3.6,8.9c0.9,0.9,2,1.7,3,2.1
			c3.4,1.4,5.7-0.8,7.2-4.4c1.4-3.4,0.9-6.4-1.4-7.4C328.2,59.4,326.3,59.8,324.8,60.7z"/>
	</g>
</g>
<g>
	<g>
		<path class="st0" d="M341.9,72.4c3.1-5.5,7.6-7,12.9-4.1c5.3,2.9,6.4,7.5,3.3,13c-3.4,6.1-8,6.6-12.8,4
			C340.5,82.7,338.6,78.3,341.9,72.4z M354.1,79.2c2.3-4.2,1.5-6.6-0.9-8c-2.4-1.4-4.9-0.8-7.3,3.4c-2.1,3.8-1.5,6.5,1,7.9
			C349.4,83.9,351.9,83,354.1,79.2z"/>
	</g>
</g>
<g>
	<g>
		<path class="st0" d="M359.2,93.4l11-15.4l2.9,2.1l-1.2,2.7L372,83c2.4-0.5,4.7-0.6,6.2,0.4c0.7,0.5,1.1,1.3,1.1,2.2l-2.9,2.3
			c-0.3-0.5-0.6-1-1.1-1.3c-1.3-0.9-3.9-0.6-5.5-0.4l-6.9,9.7L359.2,93.4z"/>
	</g>
</g>
<g>
	<g>
		<path class="st0" d="M386.9,115.2c-1.3-0.5-2.5-1.2-3.2-1.8c-1.4-1.3-1.5-2.5-0.6-3.9l-0.1-0.2c-2.7-0.1-4.5-0.5-6.2-2
			c-2.3-2.1-2.8-5.5-0.7-7.9c1.7-2,3.6-1.8,6.2-0.4c2.2,1.2,4.9,2.7,6.7,3.6l0.8-0.9c1.5-1.7,1.6-3.2-0.5-5
			c-1.5-1.3-3.6-2.3-5.8-2.9l1.2-2.7c2.6,0.6,5.3,1.9,7,3.4c2.9,2.6,5.2,6,1.3,10.3l-5.4,6.1c-0.5,0.5-0.8,1-0.1,1.6
			c0.4,0.3,0.7,0.6,0.9,0.7L386.9,115.2z M380,106.1c1,0.9,2.7,1.4,4.7,1.2l2.8-3.1c-1.5-0.9-3.5-1.9-4.7-2.5
			c-1.1-0.6-2.1-0.8-3,0.3C378.6,103.3,378.8,105.1,380,106.1z"/>
	</g>
</g>
<g>
	<g>
		<path class="st0" d="M410.3,101.7l3,3.2l-19.6,18.4l-3-3.2L410.3,101.7z"/>
	</g>
</g>
<g>
	<g>
		<path class="st0" d="M401.4,145.2c2.1-0.3,5-0.7,8.7-1.4l-0.5-0.8c2.9-3.8,7.6-10.4,9.1-12.7c0.5-0.8,0.7-1.2,0.1-2.1l2.4-1.6
			c0.2,0.2,0.6,0.7,1.1,1.5c1.2,1.7,1.2,2.8-0.2,4.8c-0.6,0.9-4.9,6.5-7.5,9.8l0.1,0.1c4.2-1,11.9-3.1,14.8-3.9l2.6,3.8
			c-5.9,1.7-20.9,5.1-28,6.6L401.4,145.2z"/>
	</g>
</g>
<g>
	<g>
		<path class="st0" d="M432.6,188c3.4-5.8,9.6-16.9,12-21.7l-0.1-0.2l-17.6,7.2l-1.7-4.1l24.2-9.9l1.5,3.6
			c-2.2,4.4-7.3,14.1-10.8,19.9l0.1,0.1l16.2-6.6l1.7,4.2l-24.2,9.9L432.6,188z"/>
	</g>
</g>
<g>
	<g>
		<path class="st0" d="M445,194.8c6.1-1.5,10.3,0.8,11.7,6.6c1.5,5.9-1.1,9.8-7.3,11.3c-6.7,1.7-10.3-1.3-11.6-6.6
			C436.5,200.8,438.4,196.5,445,194.8z M448.4,208.4c4.7-1.2,5.9-3.4,5.2-6.1c-0.7-2.7-2.8-4.2-7.5-3c-4.2,1.1-5.8,3.3-5.1,6.1
			C441.7,208.2,444.1,209.4,448.4,208.4z"/>
	</g>
</g>
<g>
	<g>
		<path class="st0" d="M469.4,232.9l0.4,9.2c0.4,9.4-4.6,13.5-12.5,13.8c-7.7,0.3-13.2-3.6-13.6-12.4l-0.4-9.6L469.4,232.9z
			 M447,238.4l0.2,4.4c0.2,6.1,4.5,8.4,9.9,8.2c6.3-0.3,9.3-3.4,9.1-9.2l-0.2-4.1L447,238.4z"/>
	</g>
</g>
<g>
	<g>
		<path class="st0" d="M462.4,264.5l-0.3,4.5l-18.8-1.3l0.3-4.5L462.4,264.5z M471.3,267.3c-0.1,1.5-1.2,2.6-2.7,2.5
			c-1.5-0.1-2.5-1.3-2.4-2.8c0.1-1.6,1.2-2.6,2.7-2.5C470.4,264.6,471.4,265.7,471.3,267.3z"/>
	</g>
</g>
<g>
	<g>
		<path class="st0" d="M441.5,280.9c0.4-2.4,1.5-5,2.4-6.3l2.9,1c-0.9,1.4-2,3.8-2.3,5.9c-0.3,2,0,3.7,2,4c3.5,0.5,3.5-9.7,9.7-8.7
			c3.7,0.6,5.1,3.9,4.4,8.4c-0.4,2.4-1.3,4.7-2,5.8l-2.9-1.1c0.7-1.2,1.6-3.3,1.8-5.1c0.3-2-0.3-3.4-1.8-3.6
			c-3.2-0.5-3.3,9.6-9.7,8.6C442,289.1,440.8,285.3,441.5,280.9z"/>
	</g>
</g>
<g>
	<g>
		<path class="st0" d="M448.2,297.2c5.3,1.4,9.2,4.3,7.4,11.1c-0.5,1.9-1.6,4.2-2.7,5.5l-3.1-1.5c0.9-1.1,1.9-2.9,2.3-4.3
			c0.9-3.3-0.9-5.3-4.9-6.4c-3.6-1-6.2-0.1-7.2,3.5c-0.4,1.6-0.5,3.7-0.4,5l-3.2-0.3c-0.3-1.7-0.2-4.2,0.4-6.4
			C438.2,298.1,442.1,295.5,448.2,297.2z"/>
	</g>
</g>
<g>
	<g>
		<path class="st0" d="M433.3,315.7l17.7,6.7l-1.3,3.3l-2.9-0.5l-0.1,0.2c1.1,2.2,1.8,4.4,1.1,6.1c-0.3,0.8-1,1.4-1.9,1.6l-3-2.2
			c0.4-0.4,0.8-0.9,1-1.5c0.6-1.5-0.4-4-1.1-5.4l-11.2-4.2L433.3,315.7z"/>
	</g>
</g>
<g>
	<g>
		<path class="st0" d="M443.7,340.1l-1.9,4l-17.1-8l1.9-4L443.7,340.1z M450.9,346c-0.7,1.4-2.1,2-3.4,1.3c-1.4-0.6-1.8-2.1-1.2-3.5
			c0.7-1.5,2.1-2,3.4-1.3C451.1,343.1,451.6,344.5,450.9,346z"/>
	</g>
</g>
<g>
	<g>
		<path class="st0" d="M437.7,353.1l-2,3.2l-2.3-0.9l-0.2,0.2c0.6,2.9,0.3,4.8-0.9,6.8c-1.3,2.1-3.2,3-5.3,2.8l-0.1,0.2
			c0.6,3,0.2,5.3-1,7.1c-2.3,3.6-5.6,3.7-9.4,1.4l-10.1-6.4l2.4-3.8l9.6,6.1c2.4,1.5,4.1,1.4,5.3-0.4c0.9-1.4,1.1-3.4,0.4-5.1
			l-11.2-7.1l2.4-3.8l9.6,6.1c2.4,1.5,4.1,1.4,5.3-0.3c0.9-1.4,1-3.6,0.3-5.3l-11-7l2.4-3.8L437.7,353.1z"/>
	</g>
</g>
<g>
	<g>
		<path class="st0" d="M416.2,384.6l-2.8,3.4l-14.6-12l2.8-3.4L416.2,384.6z M421.7,392c-1,1.2-2.5,1.4-3.7,0.4
			c-1.2-1-1.3-2.5-0.3-3.7c1-1.3,2.5-1.4,3.7-0.4C422.6,389.3,422.8,390.8,421.7,392z"/>
	</g>
</g>
<g>
	<g>
		<path class="st0" d="M407.3,395.2l-2.6,2.6l-2.1-1.4l-0.2,0.1c0,2.7-0.8,4.7-2.4,6.4c-2.8,2.8-6.1,2.5-9.3-0.7l-8.6-8.5l3.1-3.2
			l8.1,8c2.1,2.1,3.8,2.2,5.3,0.7c1.3-1.3,1.7-3.3,1.5-5.1l-9.3-9.3l3.2-3.2L407.3,395.2z"/>
	</g>
</g>
<g>
	<g>
		<path class="st0" d="M363,409.7c0.7-1.2,1.6-2.2,2.4-2.8c1.5-1.2,2.7-1.1,4,0.1l0.2-0.1c0.6-2.6,1.3-4.3,3.1-5.7
			c2.4-1.9,5.9-1.8,7.9,0.8c1.6,2.1,1.1,3.8-0.7,6.2c-1.5,2-3.6,4.4-4.8,5.9l0.7,0.9c1.4,1.8,2.8,2.2,5,0.4c1.6-1.2,2.9-3.2,3.9-5.2
			l2.5,1.7c-1,2.4-2.8,4.9-4.6,6.3c-3,2.4-6.8,4-10.4-0.6l-5-6.4c-0.5-0.6-0.9-1-1.6-0.4c-0.4,0.3-0.7,0.6-0.9,0.8L363,409.7z
			 M373.1,404.6c-1.1,0.8-1.9,2.4-2,4.4l2.6,3.3c1.1-1.3,2.5-3.1,3.3-4.2c0.7-1,1.2-1.9,0.3-3C376.2,403.8,374.4,403.6,373.1,404.6z
			"/>
	</g>
</g>
<g>
	<g>
		<path class="st0" d="M363.2,420c2.8,4.6,3.7,9.5-2.3,13.2c-1.7,1-4,1.9-5.7,2.1l-1.2-3.3c1.4-0.2,3.3-0.8,4.6-1.5
			c2.9-1.8,3-4.5,0.8-8c-1.9-3.2-4.4-4.4-7.6-2.4c-1.4,0.9-2.9,2.3-3.7,3.4l-2.2-2.4c0.9-1.4,2.7-3.1,4.7-4.4
			C355.3,413.8,359.9,414.6,363.2,420z"/>
	</g>
</g>
<g>
	<g>
		<path class="st0" d="M348.2,439.9l-4,2l-8.4-16.9l4-2L348.2,439.9z M350.2,449c-1.4,0.7-2.8,0.2-3.5-1.1c-0.7-1.3-0.1-2.8,1.2-3.5
			c1.5-0.7,2.8-0.2,3.5,1.1C352.1,446.9,351.7,448.3,350.2,449z"/>
	</g>
</g>
<g>
	<g>
		<path class="st0" d="M332.9,436.9c2.3,5.9,0.5,10.3-5.1,12.5c-5.6,2.2-9.8,0.1-12.1-5.8c-2.5-6.5,0-10.4,5.1-12.4
			C325.9,429.2,330.5,430.5,332.9,436.9z M319.9,441.9c1.7,4.5,4.1,5.4,6.7,4.4c2.6-1,3.8-3.3,2-7.8c-1.6-4.1-4-5.3-6.7-4.3
			C319.3,435.2,318.4,437.7,319.9,441.9z M332,451.2l-1.4,9l-4-0.6l3.3-8.6L332,451.2z"/>
	</g>
</g>
<g>
	<g>
		<path class="st0" d="M310.3,455l-3.6,0.9l-1.1-2.3l-0.2,0c-1.4,2.3-3.1,3.6-5.4,4.2c-3.8,0.9-6.5-1.1-7.6-5.5l-2.9-11.7l4.3-1.1
			l2.7,11.1c0.7,2.9,2.1,3.9,4.1,3.4c1.8-0.4,3.2-1.9,3.9-3.5l-3.1-12.7l4.3-1.1L310.3,455z"/>
	</g>
</g>
<g>
	<g>
		<path class="st0" d="M261.1,453c0-4.9-4-8.9-8.9-8.9c-4.9,0-8.9,4-8.9,8.9c0,4.9,4,8.9,8.9,8.9C257.2,461.9,261.1,457.9,261.1,453
			"/>
	</g>
	<g>
		<path class="st0" d="M361.6,252.5c0-7.1-5.7-12.8-12.8-12.8c-7.1,0-12.8,5.7-12.8,12.8c0,7.1,5.7,12.8,12.8,12.8
			C355.8,265.3,361.6,259.6,361.6,252.5 M350.1,201.5c-6.5,4.1,1.5,20,7.7,30.2c5.3,8.6,9,13.4,9.3,20.8c-0.3,7.4-4.1,12.2-9.3,20.8
			c-6.2,10.2-14.2,26.1-7.7,30.2c6.5,4.1,10.9-20.1,30.6-31.4c14-8,44,3.6,44.1-19.5v0v0c-0.1-23.1-30.1-11.5-44.1-19.5
			C361.1,221.7,356.6,197.4,350.1,201.5"/>
	</g>
	<g>
		<path class="st0" d="M197.7,157.8c6.1-3.6,13.9-1.6,17.5,4.5c3.6,6.1,1.6,13.9-4.5,17.5c-6.1,3.6-13.9,1.6-17.5-4.5
			C189.6,169.3,191.6,161.4,197.7,157.8 M247.4,141.7c-0.2,7.7-18,8.9-29.9,8.8c-10.1-0.2-16.1-0.9-22.7,2.6
			c-6.2,4.1-8.4,9.7-13.2,18.6c-5.6,10.5-15.2,25.5-22.1,22c-6.8-3.5,11.8-19.7,11.5-42.3c-0.2-16.1-25.5-36.1-5.6-47.9l0,0
			c0,0,0,0,0,0c0,0,0,0,0,0c20-11.7,25.2,20,39.3,28C224.5,142.6,247.6,134.1,247.4,141.7"/>
	</g>
	<g>
		<path class="st0" d="M197.7,347.2c6.1,3.6,13.9,1.6,17.5-4.5c3.6-6.1,1.6-13.9-4.5-17.5c-6.1-3.6-13.9-1.6-17.5,4.5
			C189.6,335.7,191.6,343.6,197.7,347.2 M247.4,363.3c-0.2-7.7-18-8.9-29.9-8.7c-10.1,0.1-16.1,0.9-22.7-2.6
			c-6.2-4.1-8.4-9.7-13.2-18.6c-5.6-10.5-15.2-25.5-22.1-22c-6.8,3.5,11.8,19.7,11.5,42.3c-0.2,16.1-25.5,36.1-5.6,47.9h0
			c0,0,0,0,0,0c0,0,0,0,0,0c20,11.7,25.2-20,39.3-28C224.5,362.5,247.6,371,247.4,363.3"/>
	</g>
	<g>
		<path class="st0" d="M145.6,244.8c-1.6,2.2-2.6,4.8-2.6,7.8s1,5.6,2.6,7.8c0.9,6.2,6.2,11,12.7,11c0.3,0,0.5,0,0.8,0
			c-0.5-1.4-0.8-2.8-0.8-4.4c0-0.6,0-1.2,0.1-1.8c5.8-1.2,10.2-6.4,10.2-12.5c0-6.2-4.4-11.3-10.2-12.5c-0.1-0.6-0.1-1.2-0.1-1.8
			c0-1.5,0.3-3,0.8-4.4c-0.3,0-0.5,0-0.8,0C151.8,233.8,146.5,238.5,145.6,244.8 M154.4,303.5c6.5-4.1-1.5-20-7.7-30.2
			c-5.3-8.6-9-13.4-9.3-20.8c0.3-7.4,4.1-12.2,9.3-20.8c6.2-10.2,14.2-26.1,7.7-30.2c-6.5-4.1-10.9,20.1-30.6,31.4
			c-14,8-44-3.6-44.1,19.5c0,0,0,0,0,0c0,0,0,0,0,0c0.1,23.1,30.1,11.5,44.1,19.5C143.4,283.4,147.9,307.6,154.4,303.5"/>
	</g>
	<g>
		<path class="st0" d="M298.9,348.8c2.7,0.3,5.5-0.2,8-1.7c2.5-1.5,4.3-3.7,5.3-6.2c4.9-3.9,6.3-11,3-16.5c-0.1-0.2-0.3-0.4-0.4-0.7
			c-0.9,1.1-2,2.1-3.4,2.9c-0.5,0.3-1.1,0.6-1.6,0.8c-4-4.4-10.7-5.5-16-2.3c-5.3,3.2-7.5,9.5-5.6,15.1c-0.5,0.4-1,0.7-1.5,1
			c-1.3,0.8-2.7,1.3-4.2,1.6c0.1,0.2,0.2,0.5,0.4,0.7C286.2,349.1,293.1,351.3,298.9,348.8 M344.9,311.2c-6.9-3.5-16.4,11.5-22,22.1
			c-4.7,8.9-6.9,14.6-13.1,18.6c-6.6,3.5-12.5,2.7-22.6,2.6c-11.9-0.1-29.7,1.1-29.9,8.8c-0.2,7.7,22.9-0.9,42.6,10.2
			c14.1,7.9,19.4,39.7,39.3,27.9c0,0,0,0,0,0c0,0,0,0,0,0c19.9-11.9-5.5-31.7-5.7-47.9C333.1,330.9,351.7,314.7,344.9,311.2"/>
	</g>
	<g>
		<path class="st0" d="M312.2,164.2c-1-2.5-2.8-4.7-5.3-6.2c-2.5-1.5-5.3-2-8-1.7c-5.8-2.4-12.6-0.2-15.9,5.3
			c-0.1,0.2-0.2,0.5-0.4,0.7c1.4,0.3,2.9,0.8,4.2,1.5c0.5,0.3,1,0.7,1.5,1c-1.9,5.6,0.3,12,5.6,15.1c5.3,3.1,12,2,16-2.4
			c0.6,0.2,1.1,0.5,1.6,0.8c1.3,0.8,2.5,1.8,3.4,2.9c0.1-0.2,0.3-0.4,0.4-0.7C318.5,175.2,317.1,168.1,312.2,164.2 M257.1,142
			c0.2,7.7,18,8.9,29.9,8.7c10.1-0.2,16.1-1,22.7,2.5c6.2,4.1,8.4,9.7,13.2,18.6c5.6,10.5,15.2,25.5,22.1,22
			c6.8-3.5-11.8-19.7-11.5-42.3c0.2-16.1,25.5-36.1,5.6-47.9v0c0,0,0,0,0,0c0,0,0,0,0,0c-20-11.7-25.2,20.1-39.2,28
			C280,142.8,256.9,134.3,257.1,142"/>
	</g>
</g>
</svg>
