<?xml version="1.0" encoding="utf-8"?>
<!-- Generator: Adobe Illustrator 16.0.3, SVG Export Plug-In . SVG Version: 6.00 Build 0)  -->
<!DOCTYPE svg PUBLIC "-//W3C//DTD SVG 1.1//EN" "http://www.w3.org/Graphics/SVG/1.1/DTD/svg11.dtd">
<svg version="1.1" id="Capa_1" xmlns="http://www.w3.org/2000/svg" xmlns:xlink="http://www.w3.org/1999/xlink" x="0px" y="0px"
	 width="283.46px" height="283.46px" viewBox="0 0 283.46 283.46" enable-background="new 0 0 283.46 283.46" xml:space="preserve">
<g>
	<g>
		<path fill="#EAEAEA" d="M21.397,171.687v2.041h-2.554v8.273h-2.448v-8.273h-2.569v-2.041H21.397z"/>
		<path fill="#EAEAEA" d="M24.866,177.913v4.088h-2.433v-10.314h4.534c0.836,0,1.507,0.098,2.014,0.291
			c0.506,0.194,0.926,0.55,1.258,1.068c0.333,0.519,0.499,1.096,0.499,1.729c0,1.238-0.597,2.127-1.791,2.665l1.904,4.561h-2.669
			l-1.584-4.088H24.866z M24.866,173.523v2.629h1.481c0.483,0,0.835-0.034,1.054-0.102c0.219-0.068,0.414-0.22,0.585-0.453
			c0.171-0.234,0.257-0.503,0.257-0.805c0-0.287-0.085-0.545-0.257-0.771s-0.358-0.366-0.559-0.419
			c-0.202-0.053-0.58-0.079-1.133-0.079H24.866z"/>
		<path fill="#EAEAEA" d="M37.671,171.687l3.229,10.314h-2.597l-0.635-2.123h-3.334l-0.647,2.123h-2.118l3.306-10.314H37.671z
			 M34.913,177.974h2.185l-1.083-3.619L34.913,177.974z"/>
		<path fill="#EAEAEA" d="M49.944,171.687v10.314h-2.062l-4.037-6.967c0.005,0.177,0.01,0.292,0.015,0.348
			c0.02,0.177,0.03,0.325,0.03,0.446v6.173H42.01v-10.314h2.604l3.509,6.083c-0.03-0.302-0.045-0.531-0.045-0.688v-5.396H49.944z"/>
		<path fill="#EAEAEA" d="M59.14,173.954l-2.055,0.688c-0.277-0.816-0.862-1.225-1.757-1.225c-0.955,0-1.432,0.311-1.432,0.93
			c0,0.247,0.089,0.456,0.268,0.627c0.178,0.172,0.582,0.32,1.211,0.446c1.051,0.212,1.821,0.427,2.309,0.644
			c0.488,0.216,0.899,0.565,1.233,1.046c0.335,0.481,0.502,1.019,0.502,1.613c0,0.932-0.358,1.737-1.076,2.417
			s-1.78,1.02-3.189,1.02c-1.057,0-1.957-0.24-2.699-0.721c-0.742-0.481-1.231-1.195-1.468-2.143l2.237-0.506
			c0.251,0.962,0.95,1.442,2.096,1.442c0.553,0,0.965-0.106,1.237-0.32c0.271-0.215,0.407-0.47,0.407-0.768
			c0-0.302-0.123-0.536-0.37-0.702c-0.247-0.167-0.722-0.322-1.426-0.469c-1.313-0.272-2.249-0.645-2.807-1.115
			c-0.558-0.471-0.837-1.159-0.837-2.066c0-0.916,0.333-1.689,1-2.319c0.667-0.63,1.572-0.944,2.714-0.944
			C57.26,171.528,58.561,172.337,59.14,173.954z"/>
		<path fill="#EAEAEA" d="M63.454,178.17v3.831h-2.456v-10.314h4.065c0.907,0,1.601,0.098,2.082,0.291
			c0.481,0.194,0.91,0.541,1.288,1.039c0.378,0.499,0.567,1.111,0.567,1.836c0,0.509-0.101,1.006-0.302,1.489
			c-0.202,0.483-0.486,0.863-0.854,1.141s-0.724,0.461-1.069,0.552c-0.345,0.091-0.886,0.136-1.621,0.136H63.454z M63.371,176.296
			h1.572c0.599,0,1.02-0.139,1.262-0.415c0.242-0.277,0.363-0.595,0.363-0.952c0-0.418-0.135-0.751-0.404-0.998
			c-0.27-0.246-0.679-0.37-1.228-0.37h-1.564V176.296z"/>
		<path fill="#EAEAEA" d="M74.786,171.687l3.229,10.314h-2.597l-0.635-2.123h-3.334l-0.647,2.123h-2.118l3.306-10.314H74.786z
			 M72.028,177.974h2.185l-1.083-3.619L72.028,177.974z"/>
		<path fill="#EAEAEA" d="M81.559,177.913v4.088h-2.433v-10.314h4.534c0.836,0,1.507,0.098,2.014,0.291
			c0.506,0.194,0.926,0.55,1.258,1.068c0.333,0.519,0.499,1.096,0.499,1.729c0,1.238-0.597,2.127-1.791,2.665l1.904,4.561h-2.669
			l-1.584-4.088H81.559z M81.559,173.523v2.629h1.481c0.483,0,0.835-0.034,1.054-0.102c0.219-0.068,0.414-0.22,0.585-0.453
			c0.171-0.234,0.257-0.503,0.257-0.805c0-0.287-0.085-0.545-0.257-0.771s-0.358-0.366-0.559-0.419
			c-0.202-0.053-0.58-0.079-1.133-0.079H81.559z"/>
		<path fill="#EAEAEA" d="M96.663,173.651h-4.912v2.116h3.861v1.941h-3.861v2.252h4.912v2.04h-7.367v-10.314h7.367V173.651z"/>
		<path fill="#EAEAEA" d="M106.048,171.687v10.314h-2.062l-4.037-6.967c0.005,0.177,0.01,0.292,0.015,0.348
			c0.02,0.177,0.03,0.325,0.03,0.446v6.173h-1.881v-10.314h2.604l3.509,6.083c-0.03-0.302-0.045-0.531-0.045-0.688v-5.396H106.048z"
			/>
		<path fill="#EAEAEA" d="M116.438,175.525l-2.531,0.159c-0.036-1.456-0.604-2.185-1.704-2.185c-1.262,0-1.893,1.121-1.893,3.363
			c0,1.294,0.171,2.172,0.515,2.633s0.823,0.691,1.438,0.691c1,0,1.61-0.649,1.833-1.949l2.342,0.144
			c-0.151,1.234-0.611,2.172-1.379,2.814c-0.769,0.643-1.709,0.963-2.822,0.963c-1.365,0-2.475-0.471-3.329-1.412
			c-0.854-0.942-1.281-2.244-1.281-3.907c0-1.557,0.413-2.83,1.239-3.823c0.826-0.992,1.955-1.488,3.385-1.488
			C114.729,171.528,116.125,172.86,116.438,175.525z"/>
		<path fill="#EAEAEA" d="M120.238,171.687v10.314h-2.41v-10.314H120.238z"/>
		<path fill="#EAEAEA" d="M127.376,171.687l3.229,10.314h-2.597l-0.635-2.123h-3.334l-0.647,2.123h-2.118l3.306-10.314H127.376z
			 M124.618,177.974h2.185l-1.083-3.619L124.618,177.974z"/>
	</g>
	<g>
		<path fill="#EAEAEA" d="M19.89,140.469v6.654h-4.265v-17.914h7.061c1.575,0,2.78,0.168,3.616,0.505
			c0.835,0.337,1.581,0.938,2.237,1.805s0.984,1.929,0.984,3.189c0,0.884-0.175,1.746-0.525,2.585c-0.35,0.84-0.844,1.5-1.483,1.981
			c-0.639,0.481-1.258,0.801-1.857,0.958c-0.6,0.157-1.538,0.236-2.815,0.236H19.89z M19.746,137.215h2.729
			c1.041,0,1.771-0.241,2.192-0.722c0.42-0.481,0.63-1.033,0.63-1.654c0-0.726-0.234-1.304-0.702-1.732
			c-0.468-0.428-1.179-0.643-2.133-0.643h-2.716V137.215z"/>
		<path fill="#EAEAEA" d="M38.572,147.398c-2.413,0-4.279-0.905-5.599-2.717c-1.32-1.811-1.98-4.002-1.98-6.575
			c0-2.616,0.669-4.798,2.006-6.548s3.243-2.625,5.717-2.625c2.5,0,4.386,0.934,5.658,2.802c1.271,1.868,1.908,4.005,1.908,6.411
			c0,2.599-0.656,4.79-1.967,6.575C43.003,146.506,41.089,147.398,38.572,147.398z M38.689,132.359c-2.2,0-3.3,1.934-3.3,5.801
			c0,3.876,1.1,5.814,3.3,5.814c2.131,0,3.196-1.934,3.196-5.801C41.885,134.297,40.82,132.359,38.689,132.359z"/>
		<path fill="#EAEAEA" d="M53.25,140.023v7.1h-4.226v-17.914h7.874c1.453,0,2.618,0.168,3.498,0.505s1.608,0.955,2.185,1.856
			c0.578,0.9,0.866,1.901,0.866,3.003c0,2.151-1.037,3.694-3.11,4.63l3.307,7.92h-4.637l-2.751-7.1H53.25z M53.25,132.398v4.567
			h2.572c0.84,0,1.45-0.059,1.831-0.177c0.38-0.118,0.72-0.38,1.017-0.787c0.297-0.407,0.446-0.873,0.446-1.398
			c0-0.499-0.149-0.945-0.446-1.338c-0.297-0.394-0.622-0.637-0.971-0.729c-0.35-0.092-1.006-0.138-1.969-0.138H53.25z"/>
		<path fill="#EAEAEA" d="M78.041,129.209v3.543h-4.436v14.37h-4.252v-14.37h-4.462v-3.543H78.041z"/>
		<path fill="#EAEAEA" d="M87.381,129.209l5.607,17.914h-4.51l-1.104-3.688h-5.792l-1.123,3.688h-3.679l5.742-17.914H87.381z
			 M82.59,140.128h3.796l-1.881-6.286L82.59,140.128z"/>
		<path fill="#EAEAEA" d="M99.17,143.58h7.126v3.543H94.918v-17.914h4.252V143.58z"/>
	</g>
	<g>
		<path fill="#EAEAEA" d="M15.624,150.488h5.468c2.229,0,3.89,0.309,4.982,0.926c1.092,0.616,2.072,1.592,2.937,2.927
			c0.865,1.334,1.298,3.021,1.298,5.059c0,2.563-0.756,4.705-2.269,6.424c-1.512,1.72-3.597,2.579-6.254,2.579h-6.163V150.488z
			 M19.745,153.782v11.247h1.729c1.528,0,2.663-0.57,3.405-1.712c0.742-1.143,1.113-2.482,1.113-4.022
			c0-1.085-0.212-2.089-0.635-3.013c-0.423-0.923-0.949-1.57-1.578-1.941c-0.628-0.372-1.384-0.559-2.266-0.559H19.745z"/>
		<path fill="#EAEAEA" d="M45.848,153.9h-8.53v3.675h6.706v3.373h-6.706v3.911h8.53v3.543H33.052v-17.914h12.795V153.9z"/>
	</g>
	<polygon fill="#EAEAEA" points="161.227,114.42 161.227,155.455 142.392,146.867 142.392,107.441 128.924,100.937 128.819,156.285 
		175.627,178.997 175.627,121.664 	"/>
	<path fill="#EAEAEA" d="M189.892,179.826v-11.082c0,0,17.935,5.751,28.112-11.768c0,0,4.388,16.339,25.253,16.756l6.325,5.955
		L189.892,179.826z"/>
	<path fill="#EAEAEA" d="M161.227,114.42l28.113-14.223c0,0,9.276-4.848,16.617,0l10.387,9.656c0,0-5.264-5.427-11.634-2.278
		l-29.083,14.088L161.227,114.42z"/>
	<path fill="#EAEAEA" d="M270.815,114.42l-28.112-14.223c0,0-9.277-4.848-16.618,0l-9.741,9.656c0,0,4.618-5.427,10.985-2.278
		l29.084,14.088L270.815,114.42z"/>
	<polygon fill="#EAEAEA" points="256.413,121.664 256.436,123.386 256.413,166.714 270.815,179.826 270.815,151.192 
		270.815,138.989 270.815,114.42 	"/>
	<path fill="#EAEAEA" d="M190.617,142.798v12.195c0,0,13.55-3.82,15.275-10.472c0,0,1.85-8.254,0-14.412
		c0,0-1.478-4.066-5.666-2.956c0,0-3.082,0.615-3.082,4.187C197.145,131.34,197.885,141.565,190.617,142.798z"/>
	<path fill="#EAEAEA" d="M244.552,143.604v12.046c0,0-13.384-3.772-15.089-10.344c0,0-1.824-8.152,0-14.236
		c0,0,1.46-4.015,5.598-2.921c0,0,3.043,0.609,3.043,4.139C238.104,132.288,237.372,142.387,244.552,143.604z"/>
</g>
</svg>
