<?xml version="1.0" encoding="utf-8"?>
<!-- Generator: Adobe Illustrator 16.0.0, SVG Export Plug-In . SVG Version: 6.00 Build 0)  -->
<!DOCTYPE svg PUBLIC "-//W3C//DTD SVG 1.1//EN" "http://www.w3.org/Graphics/SVG/1.1/DTD/svg11.dtd">
<svg version="1.1" id="Capa_1" xmlns="http://www.w3.org/2000/svg" xmlns:xlink="http://www.w3.org/1999/xlink" x="0px" y="0px"
	 width="70.4px" height="61px" viewBox="0 0 70.4 61" enable-background="new 0 0 70.4 61" xml:space="preserve">
<g>
	<g>
		<circle fill="#112057" cx="35.202" cy="6.843" r="2.755"/>
		<circle fill="#112057" cx="40.995" cy="7.812" r="2.754"/>
		<circle fill="#112057" cx="46.049" cy="10.806" r="2.754"/>
		<circle fill="#112057" cx="49.68" cy="15.422" r="2.754"/>
		<circle fill="#112057" cx="51.4" cy="21.038" r="2.755"/>
		<circle fill="#112057" cx="50.978" cy="26.895" r="2.754"/>
		<path fill="#112057" d="M46.812,34.406c-1.214-0.914-1.459-2.641-0.543-3.859c0.915-1.212,2.641-1.458,3.856-0.542
			c1.216,0.913,1.459,2.639,0.544,3.858C49.755,35.078,48.029,35.32,46.812,34.406z"/>
		<circle fill="#112057" cx="44.212" cy="36.252" r="2.755"/>
		<circle fill="#112057" cx="38.781" cy="38.49" r="2.754"/>
		<circle fill="#112057" cx="32.91" cy="38.616" r="2.754"/>
		<path fill="#112057" d="M25.042,35.17c0.798-1.295,2.494-1.699,3.789-0.902c1.296,0.797,1.7,2.494,0.904,3.789
			c-0.798,1.295-2.494,1.697-3.791,0.9C24.65,38.164,24.246,36.467,25.042,35.17z"/>
		<path fill="#112057" d="M21.295,30.561c1.211-0.921,2.938-0.686,3.859,0.525c0.92,1.213,0.686,2.939-0.525,3.861
			c-1.212,0.918-2.938,0.684-3.86-0.527C19.848,33.211,20.084,31.482,21.295,30.561z"/>
		<circle fill="#112057" cx="20.227" cy="27.556" r="2.755"/>
		<circle fill="#112057" cx="19.554" cy="21.721" r="2.754"/>
		<circle fill="#112057" cx="21.031" cy="16.037" r="2.755"/>
		<circle fill="#112057" cx="24.46" cy="11.27" r="2.754"/>
		<circle fill="#112057" cx="29.379" cy="8.061" r="2.754"/>
		<path fill="#112057" d="M34.76,11.844c0.443,1.126-0.111,2.397-1.238,2.84c-1.126,0.44-2.397-0.113-2.839-1.239
			c-0.442-1.125,0.113-2.395,1.241-2.838C33.046,10.164,34.319,10.719,34.76,11.844z"/>
		<circle fill="#112057" cx="37.389" cy="12.44" r="2.19"/>
		<path fill="#112057" d="M43.601,15.338c-0.595,1.055-1.933,1.427-2.985,0.831c-1.054-0.597-1.425-1.932-0.83-2.983
			c0.595-1.054,1.931-1.425,2.983-0.83C43.823,12.949,44.195,14.285,43.601,15.338z"/>
		<circle fill="#112057" cx="44.795" cy="17.755" r="2.189"/>
		<circle fill="#112057" cx="46.098" cy="22.242" r="2.191"/>
		<path fill="#112057" d="M44.752,28.96c-1.167-0.327-1.843-1.538-1.514-2.701c0.33-1.165,1.539-1.843,2.702-1.515
			c1.165,0.33,1.842,1.54,1.512,2.704C47.125,28.614,45.915,29.291,44.752,28.96z"/>
		<path fill="#112057" d="M41.243,32.344c-0.911-0.797-1.002-2.181-0.205-3.091c0.799-0.91,2.181-1.002,3.089-0.206
			c0.913,0.798,1.003,2.18,0.206,3.091C43.536,33.049,42.152,33.141,41.243,32.344z"/>
		<circle fill="#112057" cx="38.634" cy="33.021" r="2.19"/>
		<path fill="#112057" d="M31.785,33.301c0.044-1.209,1.061-2.152,2.27-2.107c1.208,0.045,2.153,1.059,2.108,2.268
			c-0.043,1.211-1.058,2.152-2.27,2.107C32.686,35.525,31.741,34.51,31.785,33.301z"/>
		<circle fill="#112057" cx="29.614" cy="31.704" r="2.19"/>
		<path fill="#112057" d="M25.077,26.568c0.964-0.73,2.338-0.537,3.065,0.431c0.729,0.965,0.537,2.336-0.429,3.065
			c-0.966,0.73-2.338,0.536-3.067-0.429C23.917,28.669,24.111,27.297,25.077,26.568z"/>
		<path fill="#112057" d="M24.409,21.54c1.186-0.245,2.343,0.519,2.583,1.705c0.245,1.187-0.518,2.342-1.704,2.584
			c-1.185,0.244-2.339-0.519-2.583-1.706C22.459,22.938,23.224,21.781,24.409,21.54z"/>
		<circle fill="#112057" cx="25.685" cy="18.907" r="2.19"/>
		<path fill="#112057" d="M29.843,13.284c0.938,0.766,1.074,2.145,0.306,3.08c-0.766,0.939-2.145,1.076-3.081,0.31
			c-0.938-0.765-1.073-2.145-0.307-3.083C27.525,12.655,28.906,12.519,29.843,13.284z"/>
		<circle fill="#112057" cx="32.417" cy="17.128" r="1.519"/>
		<circle fill="#112057" cx="35.967" cy="16.342" r="1.518"/>
		<path fill="#112057" d="M40.43,18.686c-0.605,0.58-1.567,0.557-2.146-0.052c-0.58-0.606-0.558-1.566,0.05-2.144
			c0.604-0.582,1.566-0.557,2.146,0.047S41.035,18.105,40.43,18.686z"/>
		<path fill="#112057" d="M41.885,21.964c-0.824,0.164-1.622-0.372-1.781-1.196c-0.163-0.824,0.371-1.621,1.194-1.782
			c0.824-0.165,1.619,0.372,1.783,1.195C43.245,21.002,42.708,21.801,41.885,21.964z"/>
		<path fill="#112057" d="M41.346,25.51c-0.781-0.305-1.166-1.186-0.857-1.966c0.306-0.782,1.186-1.167,1.967-0.859
			c0.78,0.303,1.163,1.185,0.858,1.966C43.011,25.432,42.128,25.816,41.346,25.51z"/>
		<path fill="#112057" d="M38.985,28.211c-0.495-0.678-0.346-1.628,0.335-2.121c0.678-0.494,1.626-0.345,2.119,0.333
			c0.497,0.678,0.346,1.625-0.333,2.122C40.432,29.04,39.482,28.889,38.985,28.211z"/>
		<path fill="#112057" d="M35.544,29.218c-0.054-0.838,0.584-1.559,1.422-1.608c0.838-0.052,1.558,0.585,1.608,1.421
			c0.054,0.838-0.584,1.557-1.421,1.61C36.316,30.695,35.597,30.057,35.544,29.218z"/>
		<path fill="#112057" d="M32.1,28.216c0.406-0.736,1.33-0.999,2.063-0.591c0.734,0.407,0.998,1.331,0.591,2.063
			c-0.404,0.734-1.329,0.997-2.062,0.592C31.958,29.875,31.694,28.951,32.1,28.216z"/>
		<circle fill="#112057" cx="30.46" cy="26.853" r="1.519"/>
		<path fill="#112057" d="M29.194,21.974c0.836,0.057,1.467,0.784,1.404,1.621c-0.059,0.838-0.785,1.466-1.62,1.407
			c-0.837-0.057-1.466-0.785-1.407-1.621C27.627,22.545,28.356,21.915,29.194,21.974z"/>
		<circle fill="#112057" cx="29.737" cy="19.912" r="1.518"/>
		<circle fill="#112057" cx="33.563" cy="20.709" r="1.266"/>
		<path fill="#112057" d="M37.657,20.262c-0.113,0.691-0.766,1.157-1.455,1.042c-0.689-0.112-1.157-0.763-1.044-1.454
			c0.114-0.691,0.765-1.157,1.458-1.043C37.304,18.919,37.771,19.572,37.657,20.262z"/>
		<circle fill="#112057" cx="38.392" cy="22.196" r="1.267"/>
		<circle fill="#112057" cx="37.528" cy="24.985" r="1.267"/>
		<circle fill="#112057" cx="34.681" cy="25.627" r="1.267"/>
		<path fill="#112057" d="M32.262,22.293c0.658-0.246,1.385,0.09,1.626,0.746c0.244,0.656-0.087,1.384-0.744,1.628
			c-0.657,0.245-1.383-0.09-1.63-0.745C31.271,23.266,31.607,22.537,32.262,22.293z"/>
		<circle fill="#112057" cx="35.55" cy="22.843" r="1.082"/>
	</g>
	<path fill="#112057" d="M8.716,53.805c-0.167,0.598-0.321,1.211-0.461,1.83c-0.539,0.102-1.028,0.174-1.472,0.215
		c-0.442,0.039-0.82,0.061-1.134,0.061c-0.693,0-1.343-0.107-1.951-0.324c-0.607-0.215-1.137-0.555-1.594-1.018
		c-0.454-0.467-0.758-1.027-0.91-1.691c-0.156-0.658-0.191-1.383-0.105-2.168c0.093-0.85,0.316-1.639,0.667-2.361
		c0.348-0.725,0.809-1.336,1.374-1.834c0.563-0.496,1.209-0.865,1.932-1.113c0.724-0.242,1.463-0.363,2.221-0.363
		c0.747,0,1.554,0.096,2.42,0.283c-0.036,0.457-0.057,0.781-0.063,0.971l-0.043,0.824c-0.505-0.152-0.928-0.258-1.268-0.314
		c-0.34-0.055-0.667-0.084-0.981-0.084c-0.494,0-0.975,0.084-1.45,0.248c-0.472,0.168-0.902,0.434-1.292,0.797
		c-0.387,0.365-0.702,0.805-0.944,1.322c-0.243,0.514-0.397,1.049-0.458,1.607c-0.073,0.668-0.022,1.264,0.15,1.793
		c0.173,0.531,0.498,0.959,0.973,1.287c0.475,0.328,1.086,0.49,1.838,0.49C6.862,54.262,7.715,54.111,8.716,53.805L8.716,53.805z
		 M16.511,45.037c0.689,0,1.338,0.107,1.946,0.316c0.61,0.211,1.132,0.555,1.571,1.025c0.437,0.479,0.747,1.029,0.927,1.658
		c0.18,0.633,0.225,1.369,0.134,2.211c-0.087,0.789-0.288,1.543-0.599,2.266c-0.316,0.719-0.747,1.342-1.298,1.863
		c-0.551,0.518-1.197,0.906-1.931,1.154c-0.736,0.254-1.494,0.379-2.273,0.379c-0.74,0-1.437-0.117-2.092-0.348
		c-0.656-0.23-1.202-0.59-1.641-1.084c-0.438-0.492-0.727-1.059-0.871-1.695c-0.143-0.639-0.174-1.332-0.093-2.074
		c0.089-0.816,0.306-1.596,0.651-2.34c0.35-0.744,0.806-1.359,1.374-1.848c0.566-0.484,1.21-0.855,1.927-1.105
		C14.962,45.164,15.717,45.037,16.511,45.037L16.511,45.037z M16.222,46.678c-0.697,0-1.323,0.18-1.879,0.535
		s-0.996,0.844-1.326,1.459c-0.328,0.619-0.531,1.289-0.608,2.004c-0.073,0.668-0.016,1.285,0.177,1.842
		c0.189,0.564,0.529,0.99,1.017,1.289c0.49,0.293,1.037,0.441,1.642,0.441c0.457,0,0.902-0.088,1.336-0.264
		c0.436-0.174,0.822-0.438,1.164-0.795c0.342-0.357,0.615-0.787,0.82-1.289c0.21-0.504,0.343-1.025,0.4-1.568
		c0.057-0.508,0.042-0.998-0.042-1.461c-0.086-0.467-0.254-0.871-0.502-1.205c-0.25-0.338-0.568-0.584-0.955-0.75
		C17.081,46.758,16.666,46.678,16.222,46.678L16.222,46.678z M21.808,55.727c0.187-0.92,0.369-1.949,0.538-3.094l0.572-3.771
		c0.202-1.365,0.362-2.578,0.479-3.641c0.536,0.014,0.99,0.018,1.361,0.018c0.277,0,0.682-0.004,1.215-0.018
		c0.412,1.014,0.987,2.33,1.728,3.957c0.74,1.627,1.336,2.973,1.783,4.041l1.035-7.143c0.023-0.168,0.056-0.455,0.099-0.855
		c0.436,0.014,0.76,0.018,0.982,0.018c0.088,0,0.413-0.004,0.972-0.018l-0.482,2.826l-0.742,4.83l-0.392,2.85
		c-0.482-0.01-0.89-0.018-1.226-0.018c-0.269,0-0.704,0.008-1.307,0.018c-0.178-0.457-0.317-0.797-0.414-1.016
		c-0.152-0.34-0.479-1.035-0.982-2.096c-0.329-0.695-0.74-1.588-1.231-2.676c-0.359-0.801-0.665-1.498-0.92-2.092
		c-0.128,0.828-0.353,2.369-0.679,4.623c-0.129,0.918-0.274,2.002-0.43,3.256c-0.434-0.01-0.745-0.018-0.938-0.018
		C22.674,55.709,22.336,55.717,21.808,55.727L21.808,55.727z M31.707,55.727c0.587-0.01,0.987-0.018,1.202-0.018l1.124,0.018
		c0.651-1.266,1.312-2.51,1.985-3.732h3.643c0.112,0.482,0.247,1.109,0.4,1.887c0.152,0.773,0.262,1.389,0.323,1.846
		c0.567-0.01,0.971-0.018,1.21-0.018l1.038,0.018l-0.205-0.846l-1.444-6.512l-0.646-3.148c-0.422,0.014-0.85,0.018-1.29,0.018
		c-0.247,0-0.672-0.004-1.272-0.018c-0.469,0.879-1.052,1.916-1.749,3.119l-2.248,3.887C32.979,53.613,32.291,54.783,31.707,55.727
		L31.707,55.727z M36.809,50.393l1.252-2.26l0.701-1.293l0.699,3.553H36.809L36.809,50.393z M51.584,53.805
		c-0.166,0.598-0.323,1.211-0.462,1.83c-0.538,0.102-1.028,0.174-1.473,0.215c-0.441,0.039-0.819,0.061-1.133,0.061
		c-0.694,0-1.344-0.107-1.949-0.324c-0.607-0.215-1.14-0.555-1.595-1.018c-0.456-0.467-0.759-1.027-0.912-1.691
		c-0.155-0.658-0.19-1.383-0.103-2.168c0.092-0.85,0.315-1.639,0.665-2.361c0.351-0.725,0.81-1.336,1.374-1.834
		c0.562-0.496,1.209-0.865,1.932-1.113c0.724-0.242,1.463-0.363,2.222-0.363c0.747,0,1.554,0.096,2.419,0.283
		c-0.035,0.457-0.056,0.781-0.062,0.971l-0.044,0.824c-0.506-0.152-0.927-0.258-1.27-0.314c-0.337-0.055-0.665-0.084-0.979-0.084
		c-0.493,0-0.975,0.084-1.447,0.248c-0.475,0.168-0.905,0.434-1.294,0.797c-0.388,0.365-0.701,0.805-0.946,1.322
		c-0.241,0.514-0.395,1.049-0.455,1.607c-0.073,0.668-0.022,1.264,0.151,1.793c0.171,0.531,0.494,0.959,0.971,1.287
		c0.475,0.328,1.087,0.49,1.839,0.49C49.731,54.262,50.583,54.111,51.584,53.805L51.584,53.805z M54.759,55.727
		c0.119-0.57,0.257-1.314,0.413-2.232c0.16-0.92,0.271-1.65,0.341-2.193l-2.44-6.08c0.521,0.014,0.925,0.018,1.219,0.018
		c0.275,0,0.646-0.004,1.107-0.018c0.149,0.533,0.379,1.209,0.688,2.031c0.307,0.812,0.567,1.566,0.778,2.248l2.46-3.693
		c0.082-0.129,0.203-0.322,0.366-0.586c0.447,0.014,0.844,0.018,1.191,0.018c0.18,0,0.551-0.004,1.115-0.018l-4.461,6.242
		l-0.294,1.947c-0.092,0.574-0.197,1.346-0.315,2.316c-0.495-0.01-0.853-0.018-1.078-0.018
		C55.616,55.709,55.254,55.717,54.759,55.727L54.759,55.727z M63.172,55.727c0.638-0.01,1.014-0.018,1.132-0.018l1.051,0.018
		c0.044-0.406,0.088-0.793,0.133-1.17l0.114-0.906l0.791-5.408l0.235-1.404h0.533c0.766,0,1.561,0.023,2.394,0.068
		c0.043-0.395,0.124-0.953,0.251-1.686l-1.328,0.01l-2.487,0.008c-1.454,0-2.845-0.004-4.171-0.018
		c-0.047,0.385-0.128,0.947-0.249,1.686l1.606-0.053l0.432-0.008l0.45-0.008h0.482l-0.455,3.293l-0.515,3.346L63.172,55.727z"/>
</g>
</svg>
